<mxfile host="65bd71144e">
    <diagram id="uHhRb8vRdYXG72csFwmb" name="Page-1">
        <mxGraphModel dx="993" dy="759" grid="1" gridSize="10" guides="1" tooltips="1" connect="1" arrows="1" fold="1" page="1" pageScale="1" pageWidth="827" pageHeight="1169" math="0" shadow="0">
            <root>
                <mxCell id="0"/>
                <mxCell id="1" parent="0"/>
                <mxCell id="48" value="" style="group" vertex="1" connectable="0" parent="1">
                    <mxGeometry x="56" y="250" width="715" height="670" as="geometry"/>
                </mxCell>
                <mxCell id="2" value="Main Menu" style="rounded=0;whiteSpace=wrap;html=1;" vertex="1" parent="48">
                    <mxGeometry y="67" width="112.89473684210526" height="67" as="geometry"/>
                </mxCell>
                <mxCell id="3" value="Profile Selection" style="rounded=0;whiteSpace=wrap;html=1;" vertex="1" parent="48">
                    <mxGeometry x="112.89473684210526" y="201" width="112.89473684210526" height="67" as="geometry"/>
                </mxCell>
                <mxCell id="8" style="edgeStyle=none;html=1;entryX=0;entryY=0.5;entryDx=0;entryDy=0;" edge="1" parent="48" source="2" target="3">
                    <mxGeometry relative="1" as="geometry">
                        <Array as="points">
                            <mxPoint x="56.44736842105263" y="234.5"/>
                        </Array>
                    </mxGeometry>
                </mxCell>
                <mxCell id="4" value="Level Editor" style="rounded=0;whiteSpace=wrap;html=1;" vertex="1" parent="48">
                    <mxGeometry x="112.89473684210526" y="335" width="112.89473684210526" height="67" as="geometry"/>
                </mxCell>
                <mxCell id="9" style="html=1;entryX=0;entryY=0.5;entryDx=0;entryDy=0;startArrow=none;startFill=0;" edge="1" parent="48" source="2" target="4">
                    <mxGeometry relative="1" as="geometry">
                        <Array as="points">
                            <mxPoint x="56.44736842105263" y="368.5"/>
                        </Array>
                    </mxGeometry>
                </mxCell>
                <mxCell id="5" value="Option" style="rounded=0;whiteSpace=wrap;html=1;" vertex="1" parent="48">
                    <mxGeometry x="112.89473684210526" y="603" width="112.89473684210526" height="67" as="geometry"/>
                </mxCell>
                <mxCell id="10" style="edgeStyle=none;html=1;entryX=0;entryY=0.5;entryDx=0;entryDy=0;" edge="1" parent="48" source="2" target="5">
                    <mxGeometry relative="1" as="geometry">
                        <Array as="points">
                            <mxPoint x="56.44736842105263" y="636.5"/>
                        </Array>
                    </mxGeometry>
                </mxCell>
                <mxCell id="17" value="Profile Creation" style="rounded=0;whiteSpace=wrap;html=1;" vertex="1" parent="48">
                    <mxGeometry x="263.42105263157896" y="67" width="112.89473684210526" height="67" as="geometry"/>
                </mxCell>
                <mxCell id="20" style="edgeStyle=none;html=1;entryX=0;entryY=0.5;entryDx=0;entryDy=0;startArrow=none;startFill=0;" edge="1" parent="48" source="3" target="17">
                    <mxGeometry relative="1" as="geometry">
                        <Array as="points">
                            <mxPoint x="244.60526315789474" y="234.5"/>
                            <mxPoint x="244.60526315789474" y="100.5"/>
                        </Array>
                    </mxGeometry>
                </mxCell>
                <mxCell id="18" value="Difficulty Selection" style="rounded=0;whiteSpace=wrap;html=1;" vertex="1" parent="48">
                    <mxGeometry x="263.42105263157896" y="201" width="112.89473684210526" height="67" as="geometry"/>
                </mxCell>
                <mxCell id="19" style="edgeStyle=none;html=1;entryX=0;entryY=0.5;entryDx=0;entryDy=0;startArrow=none;startFill=0;" edge="1" parent="48" source="3" target="18">
                    <mxGeometry relative="1" as="geometry"/>
                </mxCell>
                <mxCell id="23" style="edgeStyle=none;html=1;entryX=0.5;entryY=0;entryDx=0;entryDy=0;startArrow=none;startFill=0;" edge="1" parent="48" source="21" target="17">
                    <mxGeometry relative="1" as="geometry">
                        <Array as="points">
                            <mxPoint x="470.39473684210526" y="33.5"/>
                            <mxPoint x="319.8684210526316" y="33.5"/>
                        </Array>
                    </mxGeometry>
                </mxCell>
                <mxCell id="24" value="Cancel" style="edgeLabel;html=1;align=center;verticalAlign=middle;resizable=0;points=[];" vertex="1" connectable="0" parent="23">
                    <mxGeometry x="-0.0972" y="-1" relative="1" as="geometry">
                        <mxPoint x="-10" y="1" as="offset"/>
                    </mxGeometry>
                </mxCell>
                <mxCell id="25" style="edgeStyle=none;html=1;entryX=0.5;entryY=0;entryDx=0;entryDy=0;startArrow=none;startFill=0;" edge="1" parent="48" source="21" target="3">
                    <mxGeometry relative="1" as="geometry">
                        <Array as="points">
                            <mxPoint x="545.6578947368421" y="100.5"/>
                            <mxPoint x="545.6578947368421"/>
                            <mxPoint x="169.3421052631579"/>
                        </Array>
                    </mxGeometry>
                </mxCell>
                <mxCell id="26" value="Confirm" style="edgeLabel;html=1;align=center;verticalAlign=middle;resizable=0;points=[];" vertex="1" connectable="0" parent="25">
                    <mxGeometry x="-0.9231" y="-1" relative="1" as="geometry">
                        <mxPoint x="-165" y="-61" as="offset"/>
                    </mxGeometry>
                </mxCell>
                <mxCell id="21" value="Creation Confirmation" style="rounded=0;whiteSpace=wrap;html=1;" vertex="1" parent="48">
                    <mxGeometry x="413.94736842105266" y="67" width="112.89473684210526" height="67" as="geometry"/>
                </mxCell>
                <mxCell id="22" style="edgeStyle=none;html=1;entryX=0;entryY=0.5;entryDx=0;entryDy=0;startArrow=none;startFill=0;" edge="1" parent="48" source="17" target="21">
                    <mxGeometry relative="1" as="geometry"/>
                </mxCell>
                <mxCell id="47" style="edgeStyle=none;html=1;entryX=0.5;entryY=0;entryDx=0;entryDy=0;startArrow=none;startFill=0;exitX=1;exitY=0.75;exitDx=0;exitDy=0;" edge="1" parent="48" source="27" target="5">
                    <mxGeometry relative="1" as="geometry">
                        <Array as="points">
                            <mxPoint x="564.4736842105264" y="251.25"/>
                            <mxPoint x="564.4736842105264" y="569.5"/>
                            <mxPoint x="169.3421052631579" y="569.5"/>
                        </Array>
                    </mxGeometry>
                </mxCell>
                <mxCell id="27" value="Play Screen" style="rounded=0;whiteSpace=wrap;html=1;" vertex="1" parent="48">
                    <mxGeometry x="413.94736842105266" y="201" width="112.89473684210526" height="67" as="geometry"/>
                </mxCell>
                <mxCell id="32" style="edgeStyle=none;html=1;entryX=0;entryY=0.5;entryDx=0;entryDy=0;startArrow=none;startFill=0;" edge="1" parent="48" source="18" target="27">
                    <mxGeometry relative="1" as="geometry"/>
                </mxCell>
                <mxCell id="31" style="edgeStyle=none;html=1;startArrow=none;startFill=0;exitX=0;exitY=0.5;exitDx=0;exitDy=0;entryX=0.25;entryY=1;entryDx=0;entryDy=0;" edge="1" parent="48" source="29" target="2">
                    <mxGeometry relative="1" as="geometry">
                        <mxPoint y="100.5" as="targetPoint"/>
                        <Array as="points">
                            <mxPoint x="28.223684210526315" y="502.5"/>
                        </Array>
                    </mxGeometry>
                </mxCell>
                <mxCell id="29" value="Publish Confirmation" style="rounded=0;whiteSpace=wrap;html=1;" vertex="1" parent="48">
                    <mxGeometry x="112.89473684210526" y="469" width="112.89473684210526" height="67" as="geometry"/>
                </mxCell>
                <mxCell id="30" style="edgeStyle=none;html=1;entryX=0.5;entryY=0;entryDx=0;entryDy=0;startArrow=none;startFill=0;" edge="1" parent="48" source="4" target="29">
                    <mxGeometry relative="1" as="geometry"/>
                </mxCell>
                <mxCell id="33" value="Highscore Screen" style="rounded=0;whiteSpace=wrap;html=1;" vertex="1" parent="48">
                    <mxGeometry x="263.42105263157896" y="335" width="112.89473684210526" height="67" as="geometry"/>
                </mxCell>
                <mxCell id="34" style="edgeStyle=none;html=1;entryX=0.5;entryY=0;entryDx=0;entryDy=0;startArrow=classic;startFill=1;exitX=0.5;exitY=1;exitDx=0;exitDy=0;" edge="1" parent="48" source="18" target="33">
                    <mxGeometry relative="1" as="geometry">
                        <Array as="points">
                            <mxPoint x="319.8684210526316" y="301.5"/>
                        </Array>
                    </mxGeometry>
                </mxCell>
                <mxCell id="43" style="edgeStyle=none;html=1;entryX=0.5;entryY=0;entryDx=0;entryDy=0;startArrow=none;startFill=0;" edge="1" parent="48" source="35" target="27">
                    <mxGeometry relative="1" as="geometry">
                        <Array as="points">
                            <mxPoint x="658.5526315789474" y="167.5"/>
                            <mxPoint x="470.39473684210526" y="167.5"/>
                        </Array>
                    </mxGeometry>
                </mxCell>
                <mxCell id="44" value="Again" style="edgeLabel;html=1;align=center;verticalAlign=middle;resizable=0;points=[];" vertex="1" connectable="0" parent="43">
                    <mxGeometry x="-0.2417" y="-2" relative="1" as="geometry">
                        <mxPoint x="-29" as="offset"/>
                    </mxGeometry>
                </mxCell>
                <mxCell id="35" value="Win Screen" style="rounded=0;whiteSpace=wrap;html=1;" vertex="1" parent="48">
                    <mxGeometry x="602.1052631578947" y="201" width="112.89473684210526" height="67" as="geometry"/>
                </mxCell>
                <mxCell id="38" style="edgeStyle=none;html=1;entryX=0;entryY=0.25;entryDx=0;entryDy=0;startArrow=none;startFill=0;exitX=1;exitY=0.25;exitDx=0;exitDy=0;" edge="1" parent="48" source="27" target="35">
                    <mxGeometry relative="1" as="geometry">
                        <Array as="points"/>
                    </mxGeometry>
                </mxCell>
                <mxCell id="40" value="Correct" style="edgeLabel;html=1;align=center;verticalAlign=middle;resizable=0;points=[];" vertex="1" connectable="0" parent="38">
                    <mxGeometry x="-0.2095" y="-2" relative="1" as="geometry">
                        <mxPoint x="9" y="-2" as="offset"/>
                    </mxGeometry>
                </mxCell>
                <mxCell id="45" style="edgeStyle=none;html=1;entryX=0.75;entryY=1;entryDx=0;entryDy=0;startArrow=none;startFill=0;exitX=1;exitY=0.5;exitDx=0;exitDy=0;" edge="1" parent="48" source="37" target="27">
                    <mxGeometry relative="1" as="geometry">
                        <Array as="points">
                            <mxPoint x="545.6578947368421" y="368.5"/>
                            <mxPoint x="545.6578947368421" y="301.5"/>
                            <mxPoint x="498.6184210526316" y="301.5"/>
                        </Array>
                    </mxGeometry>
                </mxCell>
                <mxCell id="46" value="Retry" style="edgeLabel;html=1;align=center;verticalAlign=middle;resizable=0;points=[];" vertex="1" connectable="0" parent="45">
                    <mxGeometry x="-0.2256" y="-2" relative="1" as="geometry">
                        <mxPoint y="11" as="offset"/>
                    </mxGeometry>
                </mxCell>
                <mxCell id="37" value="Fail Screen" style="rounded=0;whiteSpace=wrap;html=1;" vertex="1" parent="48">
                    <mxGeometry x="413.94736842105266" y="335" width="112.89473684210526" height="67" as="geometry"/>
                </mxCell>
                <mxCell id="39" style="edgeStyle=none;html=1;startArrow=none;startFill=0;exitX=0.5;exitY=1;exitDx=0;exitDy=0;entryX=0.5;entryY=0;entryDx=0;entryDy=0;" edge="1" parent="48" source="27" target="37">
                    <mxGeometry relative="1" as="geometry">
                        <mxPoint x="536.25" y="385.25" as="targetPoint"/>
                        <Array as="points"/>
                    </mxGeometry>
                </mxCell>
                <mxCell id="41" value="Incorrect" style="edgeLabel;html=1;align=center;verticalAlign=middle;resizable=0;points=[];" vertex="1" connectable="0" parent="39">
                    <mxGeometry x="-0.1905" relative="1" as="geometry">
                        <mxPoint y="4" as="offset"/>
                    </mxGeometry>
                </mxCell>
            </root>
        </mxGraphModel>
    </diagram>
</mxfile>